<mxfile host="app.diagrams.net" modified="2022-11-10T03:23:42.097Z" agent="5.0 (Windows NT 10.0; Win64; x64) AppleWebKit/537.36 (KHTML, like Gecko) Chrome/107.0.0.0 Safari/537.36" etag="EBuhZ7CAuunoof9FeIPG" version="20.5.3" type="github">
  <diagram id="sZFwyEUWAO2D6XH-p3_N" name="Page-1">
    <mxGraphModel dx="1718" dy="482" grid="1" gridSize="10" guides="1" tooltips="1" connect="1" arrows="1" fold="1" page="1" pageScale="1" pageWidth="850" pageHeight="1100" math="0" shadow="0">
      <root>
        <mxCell id="0" />
        <mxCell id="1" parent="0" />
        <mxCell id="f9CItXOnI6Ktt8JLqTk6-14" value="" style="edgeStyle=none;rounded=0;orthogonalLoop=1;jettySize=auto;html=1;" parent="1" source="f9CItXOnI6Ktt8JLqTk6-1" target="f9CItXOnI6Ktt8JLqTk6-13" edge="1">
          <mxGeometry relative="1" as="geometry" />
        </mxCell>
        <mxCell id="f9CItXOnI6Ktt8JLqTk6-1" value="Student Clicks on Join Meeting Button" style="rounded=1;whiteSpace=wrap;html=1;" parent="1" vertex="1">
          <mxGeometry x="180" y="20" width="120" height="60" as="geometry" />
        </mxCell>
        <mxCell id="f9CItXOnI6Ktt8JLqTk6-8" value="Fetch Meeting Config &amp;amp; JWT Token from OS Server" style="shape=hexagon;perimeter=hexagonPerimeter2;whiteSpace=wrap;html=1;fixedSize=1;rounded=1;" parent="1" vertex="1">
          <mxGeometry x="410" y="80" width="190" height="90" as="geometry" />
        </mxCell>
        <mxCell id="f9CItXOnI6Ktt8JLqTk6-11" value="Ping Zoom Server with Meeting Config &amp;amp; JWT Token to Join Meeting" style="shape=hexagon;perimeter=hexagonPerimeter2;whiteSpace=wrap;html=1;fixedSize=1;rounded=1;" parent="1" vertex="1">
          <mxGeometry x="380" y="190" width="270" height="105" as="geometry" />
        </mxCell>
        <mxCell id="f9CItXOnI6Ktt8JLqTk6-22" value="" style="edgeStyle=none;rounded=0;orthogonalLoop=1;jettySize=auto;html=1;" parent="1" source="f9CItXOnI6Ktt8JLqTk6-13" target="f9CItXOnI6Ktt8JLqTk6-21" edge="1">
          <mxGeometry relative="1" as="geometry" />
        </mxCell>
        <mxCell id="f9CItXOnI6Ktt8JLqTk6-27" value="" style="edgeStyle=none;rounded=0;orthogonalLoop=1;jettySize=auto;html=1;" parent="1" source="f9CItXOnI6Ktt8JLqTk6-13" target="f9CItXOnI6Ktt8JLqTk6-26" edge="1">
          <mxGeometry relative="1" as="geometry" />
        </mxCell>
        <mxCell id="f9CItXOnI6Ktt8JLqTk6-94" value="" style="edgeStyle=none;rounded=0;orthogonalLoop=1;jettySize=auto;html=1;" parent="1" source="f9CItXOnI6Ktt8JLqTk6-13" target="f9CItXOnI6Ktt8JLqTk6-93" edge="1">
          <mxGeometry relative="1" as="geometry" />
        </mxCell>
        <mxCell id="f9CItXOnI6Ktt8JLqTk6-13" value="Is Host Present?" style="rhombus;whiteSpace=wrap;html=1;rounded=1;" parent="1" vertex="1">
          <mxGeometry x="200" y="350" width="80" height="80" as="geometry" />
        </mxCell>
        <mxCell id="f9CItXOnI6Ktt8JLqTk6-88" value="" style="edgeStyle=none;rounded=0;orthogonalLoop=1;jettySize=auto;html=1;" parent="1" source="f9CItXOnI6Ktt8JLqTk6-21" target="f9CItXOnI6Ktt8JLqTk6-87" edge="1">
          <mxGeometry relative="1" as="geometry" />
        </mxCell>
        <mxCell id="f9CItXOnI6Ktt8JLqTk6-21" value="Student is Ejected from Meeting" style="rounded=1;whiteSpace=wrap;html=1;" parent="1" vertex="1">
          <mxGeometry x="400" y="360" width="120" height="60" as="geometry" />
        </mxCell>
        <mxCell id="f9CItXOnI6Ktt8JLqTk6-23" value="No" style="text;html=1;align=center;verticalAlign=middle;resizable=0;points=[];autosize=1;strokeColor=none;fillColor=none;" parent="1" vertex="1">
          <mxGeometry x="330" y="355" width="40" height="30" as="geometry" />
        </mxCell>
        <mxCell id="f9CItXOnI6Ktt8JLqTk6-49" value="" style="edgeStyle=none;rounded=0;orthogonalLoop=1;jettySize=auto;html=1;" parent="1" target="f9CItXOnI6Ktt8JLqTk6-24" edge="1">
          <mxGeometry relative="1" as="geometry">
            <mxPoint x="1030" y="610" as="sourcePoint" />
            <Array as="points">
              <mxPoint x="-190" y="610" />
            </Array>
          </mxGeometry>
        </mxCell>
        <mxCell id="f9CItXOnI6Ktt8JLqTk6-59" value="" style="edgeStyle=none;rounded=0;orthogonalLoop=1;jettySize=auto;html=1;" parent="1" source="f9CItXOnI6Ktt8JLqTk6-24" target="f9CItXOnI6Ktt8JLqTk6-58" edge="1">
          <mxGeometry relative="1" as="geometry" />
        </mxCell>
        <mxCell id="f9CItXOnI6Ktt8JLqTk6-24" value="Join Audio" style="whiteSpace=wrap;html=1;rounded=1;" parent="1" vertex="1">
          <mxGeometry x="-250" y="670" width="120" height="60" as="geometry" />
        </mxCell>
        <mxCell id="f9CItXOnI6Ktt8JLqTk6-65" value="" style="edgeStyle=none;rounded=0;orthogonalLoop=1;jettySize=auto;html=1;" parent="1" source="f9CItXOnI6Ktt8JLqTk6-26" edge="1">
          <mxGeometry relative="1" as="geometry">
            <mxPoint x="240" y="800" as="targetPoint" />
          </mxGeometry>
        </mxCell>
        <mxCell id="f9CItXOnI6Ktt8JLqTk6-26" value="Webcam Stream" style="rounded=1;whiteSpace=wrap;html=1;" parent="1" vertex="1">
          <mxGeometry x="180" y="670" width="120" height="60" as="geometry" />
        </mxCell>
        <mxCell id="f9CItXOnI6Ktt8JLqTk6-79" value="" style="edgeStyle=none;rounded=0;orthogonalLoop=1;jettySize=auto;html=1;" parent="1" source="f9CItXOnI6Ktt8JLqTk6-28" target="f9CItXOnI6Ktt8JLqTk6-78" edge="1">
          <mxGeometry relative="1" as="geometry" />
        </mxCell>
        <mxCell id="f9CItXOnI6Ktt8JLqTk6-100" value="" style="edgeStyle=none;rounded=0;orthogonalLoop=1;jettySize=auto;html=1;" parent="1" target="f9CItXOnI6Ktt8JLqTk6-28" edge="1">
          <mxGeometry relative="1" as="geometry">
            <mxPoint x="790" y="610" as="sourcePoint" />
          </mxGeometry>
        </mxCell>
        <mxCell id="f9CItXOnI6Ktt8JLqTk6-28" value="Chat Message" style="rounded=1;whiteSpace=wrap;html=1;" parent="1" vertex="1">
          <mxGeometry x="730" y="670" width="120" height="60" as="geometry" />
        </mxCell>
        <mxCell id="f9CItXOnI6Ktt8JLqTk6-32" value="yes" style="text;html=1;align=center;verticalAlign=middle;resizable=0;points=[];autosize=1;strokeColor=none;fillColor=none;" parent="1" vertex="1">
          <mxGeometry x="200" y="430" width="40" height="30" as="geometry" />
        </mxCell>
        <mxCell id="f9CItXOnI6Ktt8JLqTk6-41" value="" style="endArrow=classic;html=1;rounded=0;startArrow=none;" parent="1" source="f9CItXOnI6Ktt8JLqTk6-30" edge="1">
          <mxGeometry width="50" height="50" relative="1" as="geometry">
            <mxPoint x="470" y="740" as="sourcePoint" />
            <mxPoint x="520" y="690" as="targetPoint" />
          </mxGeometry>
        </mxCell>
        <mxCell id="f9CItXOnI6Ktt8JLqTk6-71" value="" style="edgeStyle=none;rounded=0;orthogonalLoop=1;jettySize=auto;html=1;" parent="1" source="f9CItXOnI6Ktt8JLqTk6-30" edge="1">
          <mxGeometry relative="1" as="geometry">
            <mxPoint x="570" y="800" as="targetPoint" />
          </mxGeometry>
        </mxCell>
        <mxCell id="f9CItXOnI6Ktt8JLqTk6-98" value="" style="edgeStyle=none;rounded=0;orthogonalLoop=1;jettySize=auto;html=1;" parent="1" target="f9CItXOnI6Ktt8JLqTk6-30" edge="1">
          <mxGeometry relative="1" as="geometry">
            <mxPoint x="570" y="610" as="sourcePoint" />
          </mxGeometry>
        </mxCell>
        <mxCell id="f9CItXOnI6Ktt8JLqTk6-30" value="Screenshare" style="rounded=1;whiteSpace=wrap;html=1;" parent="1" vertex="1">
          <mxGeometry x="510" y="670" width="120" height="60" as="geometry" />
        </mxCell>
        <mxCell id="f9CItXOnI6Ktt8JLqTk6-84" value="" style="edgeStyle=none;rounded=0;orthogonalLoop=1;jettySize=auto;html=1;" parent="1" source="f9CItXOnI6Ktt8JLqTk6-50" target="f9CItXOnI6Ktt8JLqTk6-83" edge="1">
          <mxGeometry relative="1" as="geometry" />
        </mxCell>
        <mxCell id="f9CItXOnI6Ktt8JLqTk6-102" value="" style="edgeStyle=none;rounded=0;orthogonalLoop=1;jettySize=auto;html=1;" parent="1" target="f9CItXOnI6Ktt8JLqTk6-50" edge="1">
          <mxGeometry relative="1" as="geometry">
            <mxPoint x="1030" y="610" as="sourcePoint" />
          </mxGeometry>
        </mxCell>
        <mxCell id="f9CItXOnI6Ktt8JLqTk6-50" value="Leave Meeting" style="rounded=1;whiteSpace=wrap;html=1;" parent="1" vertex="1">
          <mxGeometry x="970" y="670" width="120" height="60" as="geometry" />
        </mxCell>
        <mxCell id="f9CItXOnI6Ktt8JLqTk6-54" value="" style="endArrow=classic;startArrow=classic;html=1;rounded=0;entryX=0;entryY=0.5;entryDx=0;entryDy=0;" parent="1" target="f9CItXOnI6Ktt8JLqTk6-8" edge="1">
          <mxGeometry width="50" height="50" relative="1" as="geometry">
            <mxPoint x="240" y="125" as="sourcePoint" />
            <mxPoint x="350" y="100" as="targetPoint" />
          </mxGeometry>
        </mxCell>
        <mxCell id="f9CItXOnI6Ktt8JLqTk6-55" value="" style="endArrow=classic;startArrow=classic;html=1;rounded=0;entryX=0;entryY=0.5;entryDx=0;entryDy=0;" parent="1" target="f9CItXOnI6Ktt8JLqTk6-11" edge="1">
          <mxGeometry width="50" height="50" relative="1" as="geometry">
            <mxPoint x="240" y="243" as="sourcePoint" />
            <mxPoint x="340" y="220" as="targetPoint" />
          </mxGeometry>
        </mxCell>
        <mxCell id="CsAItCtSTbnviNH9AOJt-14" value="" style="edgeStyle=orthogonalEdgeStyle;rounded=0;orthogonalLoop=1;jettySize=auto;html=1;" edge="1" parent="1" source="f9CItXOnI6Ktt8JLqTk6-58" target="CsAItCtSTbnviNH9AOJt-13">
          <mxGeometry relative="1" as="geometry" />
        </mxCell>
        <mxCell id="f9CItXOnI6Ktt8JLqTk6-58" value="Is mic permission granted?" style="rhombus;whiteSpace=wrap;html=1;rounded=1;" parent="1" vertex="1">
          <mxGeometry x="-230" y="800" width="80" height="80" as="geometry" />
        </mxCell>
        <mxCell id="CsAItCtSTbnviNH9AOJt-8" value="" style="edgeStyle=orthogonalEdgeStyle;rounded=0;orthogonalLoop=1;jettySize=auto;html=1;" edge="1" parent="1" target="f9CItXOnI6Ktt8JLqTk6-60">
          <mxGeometry relative="1" as="geometry">
            <mxPoint x="-140" y="930" as="sourcePoint" />
            <Array as="points">
              <mxPoint x="-290" y="930" />
            </Array>
          </mxGeometry>
        </mxCell>
        <mxCell id="f9CItXOnI6Ktt8JLqTk6-60" value="Mute Audio" style="whiteSpace=wrap;html=1;rounded=1;" parent="1" vertex="1">
          <mxGeometry x="-350" y="970" width="120" height="60" as="geometry" />
        </mxCell>
        <mxCell id="CsAItCtSTbnviNH9AOJt-9" value="" style="edgeStyle=orthogonalEdgeStyle;rounded=0;orthogonalLoop=1;jettySize=auto;html=1;" edge="1" parent="1" source="f9CItXOnI6Ktt8JLqTk6-58" target="f9CItXOnI6Ktt8JLqTk6-62">
          <mxGeometry relative="1" as="geometry">
            <Array as="points">
              <mxPoint x="-190" y="930" />
              <mxPoint x="-120" y="930" />
            </Array>
          </mxGeometry>
        </mxCell>
        <mxCell id="f9CItXOnI6Ktt8JLqTk6-62" value="Unmute Audio" style="rounded=1;whiteSpace=wrap;html=1;" parent="1" vertex="1">
          <mxGeometry x="-180" y="970" width="120" height="60" as="geometry" />
        </mxCell>
        <mxCell id="f9CItXOnI6Ktt8JLqTk6-78" value="Send Chat Message" style="rounded=1;whiteSpace=wrap;html=1;" parent="1" vertex="1">
          <mxGeometry x="830" y="800" width="120" height="60" as="geometry" />
        </mxCell>
        <mxCell id="f9CItXOnI6Ktt8JLqTk6-80" value="Receive Chat Message" style="whiteSpace=wrap;html=1;rounded=1;" parent="1" vertex="1">
          <mxGeometry x="650" y="810" width="120" height="60" as="geometry" />
        </mxCell>
        <mxCell id="f9CItXOnI6Ktt8JLqTk6-92" value="" style="edgeStyle=none;rounded=0;orthogonalLoop=1;jettySize=auto;html=1;" parent="1" source="f9CItXOnI6Ktt8JLqTk6-83" target="f9CItXOnI6Ktt8JLqTk6-91" edge="1">
          <mxGeometry relative="1" as="geometry" />
        </mxCell>
        <mxCell id="f9CItXOnI6Ktt8JLqTk6-83" value="Reset State to Initial State" style="rounded=1;whiteSpace=wrap;html=1;" parent="1" vertex="1">
          <mxGeometry x="970" y="810" width="120" height="60" as="geometry" />
        </mxCell>
        <mxCell id="f9CItXOnI6Ktt8JLqTk6-86" value="" style="endArrow=classic;html=1;rounded=0;entryX=0.408;entryY=0.083;entryDx=0;entryDy=0;entryPerimeter=0;" parent="1" source="f9CItXOnI6Ktt8JLqTk6-28" target="f9CItXOnI6Ktt8JLqTk6-80" edge="1">
          <mxGeometry width="50" height="50" relative="1" as="geometry">
            <mxPoint x="740" y="740" as="sourcePoint" />
            <mxPoint x="690" y="790" as="targetPoint" />
          </mxGeometry>
        </mxCell>
        <mxCell id="f9CItXOnI6Ktt8JLqTk6-90" value="" style="edgeStyle=none;rounded=0;orthogonalLoop=1;jettySize=auto;html=1;" parent="1" source="f9CItXOnI6Ktt8JLqTk6-87" target="f9CItXOnI6Ktt8JLqTk6-89" edge="1">
          <mxGeometry relative="1" as="geometry" />
        </mxCell>
        <mxCell id="f9CItXOnI6Ktt8JLqTk6-87" value="Reset State to Initial State" style="rounded=1;whiteSpace=wrap;html=1;" parent="1" vertex="1">
          <mxGeometry x="580" y="360" width="120" height="60" as="geometry" />
        </mxCell>
        <mxCell id="f9CItXOnI6Ktt8JLqTk6-89" value="END" style="rounded=1;whiteSpace=wrap;html=1;" parent="1" vertex="1">
          <mxGeometry x="780" y="360" width="120" height="60" as="geometry" />
        </mxCell>
        <mxCell id="f9CItXOnI6Ktt8JLqTk6-91" value="END" style="rounded=1;whiteSpace=wrap;html=1;" parent="1" vertex="1">
          <mxGeometry x="970" y="950" width="120" height="60" as="geometry" />
        </mxCell>
        <mxCell id="f9CItXOnI6Ktt8JLqTk6-93" value="Initialize Zoom Event Listeners" style="whiteSpace=wrap;html=1;rounded=1;" parent="1" vertex="1">
          <mxGeometry x="180" y="520" width="120" height="60" as="geometry" />
        </mxCell>
        <mxCell id="CsAItCtSTbnviNH9AOJt-10" value="yes" style="text;html=1;align=center;verticalAlign=middle;resizable=0;points=[];autosize=1;strokeColor=none;fillColor=none;" vertex="1" parent="1">
          <mxGeometry x="-190" y="880" width="40" height="30" as="geometry" />
        </mxCell>
        <mxCell id="CsAItCtSTbnviNH9AOJt-13" value="&lt;span style=&quot;white-space: pre;&quot;&gt;	&lt;/span&gt;Display warning message to grant mic permission" style="whiteSpace=wrap;html=1;rounded=1;" vertex="1" parent="1">
          <mxGeometry x="-440" y="810" width="150" height="60" as="geometry" />
        </mxCell>
        <mxCell id="CsAItCtSTbnviNH9AOJt-15" value="no" style="text;html=1;align=center;verticalAlign=middle;resizable=0;points=[];autosize=1;strokeColor=none;fillColor=none;" vertex="1" parent="1">
          <mxGeometry x="-280" y="810" width="40" height="30" as="geometry" />
        </mxCell>
        <mxCell id="CsAItCtSTbnviNH9AOJt-16" value="" style="edgeStyle=orthogonalEdgeStyle;rounded=0;orthogonalLoop=1;jettySize=auto;html=1;" edge="1" parent="1" source="CsAItCtSTbnviNH9AOJt-17" target="CsAItCtSTbnviNH9AOJt-24">
          <mxGeometry relative="1" as="geometry" />
        </mxCell>
        <mxCell id="CsAItCtSTbnviNH9AOJt-17" value="Is webcam permission granted?" style="rhombus;whiteSpace=wrap;html=1;rounded=1;" vertex="1" parent="1">
          <mxGeometry x="200" y="800" width="80" height="80" as="geometry" />
        </mxCell>
        <mxCell id="CsAItCtSTbnviNH9AOJt-18" value="" style="edgeStyle=orthogonalEdgeStyle;rounded=0;orthogonalLoop=1;jettySize=auto;html=1;" edge="1" parent="1" target="CsAItCtSTbnviNH9AOJt-19">
          <mxGeometry relative="1" as="geometry">
            <mxPoint x="240" y="930" as="sourcePoint" />
            <Array as="points">
              <mxPoint x="140" y="940" />
              <mxPoint x="140" y="940" />
            </Array>
          </mxGeometry>
        </mxCell>
        <mxCell id="CsAItCtSTbnviNH9AOJt-19" value="Start Video" style="whiteSpace=wrap;html=1;rounded=1;" vertex="1" parent="1">
          <mxGeometry x="80" y="970" width="120" height="60" as="geometry" />
        </mxCell>
        <mxCell id="CsAItCtSTbnviNH9AOJt-20" value="" style="edgeStyle=orthogonalEdgeStyle;rounded=0;orthogonalLoop=1;jettySize=auto;html=1;" edge="1" parent="1" source="CsAItCtSTbnviNH9AOJt-17" target="CsAItCtSTbnviNH9AOJt-21">
          <mxGeometry relative="1" as="geometry">
            <Array as="points">
              <mxPoint x="240" y="930" />
              <mxPoint x="310" y="930" />
            </Array>
          </mxGeometry>
        </mxCell>
        <mxCell id="CsAItCtSTbnviNH9AOJt-21" value="Stop Video" style="rounded=1;whiteSpace=wrap;html=1;" vertex="1" parent="1">
          <mxGeometry x="250" y="970" width="120" height="60" as="geometry" />
        </mxCell>
        <mxCell id="CsAItCtSTbnviNH9AOJt-22" value="" style="endArrow=none;html=1;rounded=0;entryX=0.5;entryY=1;entryDx=0;entryDy=0;" edge="1" parent="1" target="CsAItCtSTbnviNH9AOJt-17">
          <mxGeometry width="50" height="50" relative="1" as="geometry">
            <mxPoint x="240" y="930" as="sourcePoint" />
            <mxPoint x="270" y="910" as="targetPoint" />
          </mxGeometry>
        </mxCell>
        <mxCell id="CsAItCtSTbnviNH9AOJt-23" value="yes" style="text;html=1;align=center;verticalAlign=middle;resizable=0;points=[];autosize=1;strokeColor=none;fillColor=none;" vertex="1" parent="1">
          <mxGeometry x="200" y="885" width="40" height="30" as="geometry" />
        </mxCell>
        <mxCell id="CsAItCtSTbnviNH9AOJt-24" value="&lt;span style=&quot;white-space: pre;&quot;&gt;	&lt;/span&gt;Display warning message to grant webcam permission" style="whiteSpace=wrap;html=1;rounded=1;" vertex="1" parent="1">
          <mxGeometry y="810" width="150" height="60" as="geometry" />
        </mxCell>
        <mxCell id="CsAItCtSTbnviNH9AOJt-25" value="no" style="text;html=1;align=center;verticalAlign=middle;resizable=0;points=[];autosize=1;strokeColor=none;fillColor=none;" vertex="1" parent="1">
          <mxGeometry x="160" y="805" width="40" height="30" as="geometry" />
        </mxCell>
        <mxCell id="CsAItCtSTbnviNH9AOJt-30" value="" style="edgeStyle=orthogonalEdgeStyle;rounded=0;orthogonalLoop=1;jettySize=auto;html=1;" edge="1" parent="1" source="CsAItCtSTbnviNH9AOJt-31" target="CsAItCtSTbnviNH9AOJt-38">
          <mxGeometry relative="1" as="geometry" />
        </mxCell>
        <mxCell id="CsAItCtSTbnviNH9AOJt-31" value="Is screenshare permission granted?" style="rhombus;whiteSpace=wrap;html=1;rounded=1;" vertex="1" parent="1">
          <mxGeometry x="530" y="800" width="80" height="80" as="geometry" />
        </mxCell>
        <mxCell id="CsAItCtSTbnviNH9AOJt-32" value="" style="edgeStyle=orthogonalEdgeStyle;rounded=0;orthogonalLoop=1;jettySize=auto;html=1;" edge="1" parent="1" target="CsAItCtSTbnviNH9AOJt-33">
          <mxGeometry relative="1" as="geometry">
            <mxPoint x="570" y="930" as="sourcePoint" />
            <Array as="points">
              <mxPoint x="470" y="940" />
              <mxPoint x="470" y="940" />
            </Array>
          </mxGeometry>
        </mxCell>
        <mxCell id="CsAItCtSTbnviNH9AOJt-33" value="Start Screenshare" style="whiteSpace=wrap;html=1;rounded=1;" vertex="1" parent="1">
          <mxGeometry x="410" y="970" width="120" height="60" as="geometry" />
        </mxCell>
        <mxCell id="CsAItCtSTbnviNH9AOJt-34" value="" style="edgeStyle=orthogonalEdgeStyle;rounded=0;orthogonalLoop=1;jettySize=auto;html=1;" edge="1" parent="1" source="CsAItCtSTbnviNH9AOJt-31" target="CsAItCtSTbnviNH9AOJt-35">
          <mxGeometry relative="1" as="geometry">
            <Array as="points">
              <mxPoint x="570" y="930" />
              <mxPoint x="640" y="930" />
            </Array>
          </mxGeometry>
        </mxCell>
        <mxCell id="CsAItCtSTbnviNH9AOJt-35" value="Stop Screenshare" style="rounded=1;whiteSpace=wrap;html=1;" vertex="1" parent="1">
          <mxGeometry x="580" y="970" width="120" height="60" as="geometry" />
        </mxCell>
        <mxCell id="CsAItCtSTbnviNH9AOJt-36" value="" style="endArrow=none;html=1;rounded=0;entryX=0.5;entryY=1;entryDx=0;entryDy=0;" edge="1" parent="1" target="CsAItCtSTbnviNH9AOJt-31">
          <mxGeometry width="50" height="50" relative="1" as="geometry">
            <mxPoint x="570" y="930" as="sourcePoint" />
            <mxPoint x="600" y="910" as="targetPoint" />
          </mxGeometry>
        </mxCell>
        <mxCell id="CsAItCtSTbnviNH9AOJt-37" value="yes" style="text;html=1;align=center;verticalAlign=middle;resizable=0;points=[];autosize=1;strokeColor=none;fillColor=none;" vertex="1" parent="1">
          <mxGeometry x="530" y="885" width="40" height="30" as="geometry" />
        </mxCell>
        <mxCell id="CsAItCtSTbnviNH9AOJt-38" value="&lt;span style=&quot;white-space: pre;&quot;&gt;	&lt;/span&gt;Display warning message to grant screenshare permission" style="whiteSpace=wrap;html=1;rounded=1;" vertex="1" parent="1">
          <mxGeometry x="330" y="810" width="150" height="60" as="geometry" />
        </mxCell>
        <mxCell id="CsAItCtSTbnviNH9AOJt-43" value="no" style="text;html=1;align=center;verticalAlign=middle;resizable=0;points=[];autosize=1;strokeColor=none;fillColor=none;" vertex="1" parent="1">
          <mxGeometry x="480" y="815" width="40" height="30" as="geometry" />
        </mxCell>
      </root>
    </mxGraphModel>
  </diagram>
</mxfile>
